<?xml version="1.0" encoding="utf-8"?>
<!-- Designed by Vexels.com - 2016 All Rights Reserved - https://vexels.com/terms-and-conditions/  -->

<svg version="1.1" id="Layer_1" xmlns="http://www.w3.org/2000/svg" xmlns:xlink="http://www.w3.org/1999/xlink" x="0px" y="0px"
	 width="1200px" height="1200px" viewBox="0 0 1200 1200" enable-background="new 0 0 1200 1200" xml:space="preserve">
<g>
	<path fill="#009F74" d="M1006.63,307.699C847.002,70.358,523.008,8.833,282.981,170.283
		C42.955,331.725-22.241,654.973,137.376,892.313c159.628,237.315,483.621,298.849,723.658,137.425
		c9.762-6.571,19.147-13.51,28.337-20.612L1150,1048.159l-113.51-216.027C1119.627,669.338,1114.955,468.755,1006.63,307.699z"/>
	<path fill="#FFFFFF" d="M721.051,471.21H617.798v-67.763c0-25.411,16.83-31.348,28.732-31.348c11.833,0,72.827,0,72.827,0V260.35
		l-100.342-0.401c-111.381,0-136.749,83.368-136.749,136.714v74.547h-64.4v115.179h64.4c0,147.839,0,325.996,0,325.996h135.533
		c0,0,0-179.92,0-325.996h91.394L721.051,471.21z"/>
</g>
</svg>
